<?xml version='1.0' encoding='UTF-8'?>
<svg xmlns="http://www.w3.org/2000/svg" font-family="ConsolasFallback,Consolas,monospace" width="1020px" height="530px" font-size="16px">
  <style>
@font-face {
src: local('Consolas'), local('Consolas Bold');
font-family: 'ConsolasFallback';
font-display: swap;
-webkit-size-adjust: 109%;
size-adjust: 109%;
}
.key {fill: #ffa657;}
.value {fill: #a5d6ff;}
.addColor {fill: #3fb950;}
.delColor {fill: #f85149;}
.cc {fill: #616e7f;}
text, tspan {white-space: pre;}
</style>
  <rect width="1020" height="530" fill="#161b22" rx="15" x="-25.448"/>
  <text style="white-space: pre;" transform="matrix(1, 0, 0, 1, -17.964001, -0.497)" fill="#c9d1d9" y="30" x="390"><tspan x="390" dy="1em">​</tspan><tspan x="390" y="30">zens@t43void</tspan> -———————————————————————————————————————————-—-<tspan x="390" dy="1em">​</tspan><tspan x="390" y="50" class="cc">. </tspan><tspan class="key">OS</tspan>:<tspan class="cc"> ........................Arch Linux</tspan><tspan x="390" dy="1em">​</tspan><tspan x="390" y="90" class="cc">. </tspan><tspan class="key">Host</tspan>:<tspan class="cc"> ............................. MSI Notebook</tspan><tspan x="390" dy="1em">​</tspan><tspan x="390" y="110" class="cc">. </tspan><tspan class="key">Kernel</tspan>:<tspan class="cc"> ..................... Linux-zen</tspan><tspan x="390" dy="1em">​</tspan><tspan x="390" y="130" class="cc">. </tspan><tspan class="key">IDE</tspan>:<tspan class="cc"> ........................ vim, neovim</tspan><tspan x="390" dy="1em">​</tspan><tspan x="390" y="150" class="cc">. </tspan><tspan x="390" dy="1em">​</tspan><tspan x="390" y="170" class="cc">. </tspan><tspan class="key">Languages</tspan>.<tspan class="key">Programming</tspan>:<tspan class="cc"> ....... Rust, JS/TS, Python</tspan><tspan x="390" y="230" class="cc">. </tspan><tspan x="390" dy="1em">​</tspan><tspan x="390" y="250" class="cc">. </tspan><tspan class="key">Hobbies</tspan>:<tspan class="cc"> ....................... Games, Books and Music</tspan><tspan x="390" dy="1em">​</tspan><tspan x="390" y="310">- Contact</tspan> -——————————————————————————————————————————————-—-<tspan x="390" dy="1em">​</tspan><tspan x="390" y="330" class="cc">. </tspan><tspan class="key">Email</tspan>.<tspan class="key">Personal</tspan>:<tspan class="cc"> ............... humanoidshinobi@gmail.com</tspan><tspan x="390" y="450">- </tspan>Quote&amp;Purpose -—————————————————————————————————————————-—-<tspan x="390" dy="1em">​</tspan><tspan x="390" y="470" class="cc">.  "Know when to fight and when not to." ~ Sun Tzu</tspan><tspan x="390" dy="1em">​</tspan><tspan x="390" y="490" class="cc">.  Why I Code -------- To sharpen my mind and craft things <tspan x="390" dy="1em">​</tspan>                       that outlive me.<tspan x="390" dy="1em">​</tspan></tspan><tspan x="390" dy="1em">​</tspan></text>
  <g transform="matrix(0.133333, 0, 0, -0.133333, -17.229265, 457.192657)" fill="#000000" stroke="none">
    <path d="M1415 3263 c-37 -10 -102 -62 -125 -100 -16 -27 -22 -54 -22 -94 0 -43 -5 -63 -19 -78 -21 -22 -25 -46 -9 -56 6 -4 8 -9 6 -13 -2 -4 5 -23 16 -42 10 -19 16 -26 13 -15 -4 11 -9 34 -12 50 -4 23 -2 27 6 15 9 -13 11 -13 11 3 0 9 -7 17 -15 17 -8 0 -15 4 -15 9 0 16 20 23 34 12 7 -6 16 -7 20 -3 4 4 7 2 5 -3 -1 -6 1 -18 6 -29 7 -16 9 -15 20 10 10 23 9 34 -2 57 -16 31 -38 37 -30 7 3 -11 1 -20 -4 -20 -25 0 -1 125 33 173 48 68 165 91 250 49 88 -43 108 -99 77 -218 -11 -46 -11 -54 4 -68 15 -15 16 -14 12 13 -2 17 -5 34 -8 38 -2 4 1 24 9 43 9 24 13 29 14 15 1 -17 3 -17 11 5 11 28 5 89 -12 123 -41 79 -169 126 -274 100z"/>
    <path d="M1533 3045 c2 -11 -24 -12 -67 0 -26 7 -29 6 -23 -14 4 -16 0 -22 -18 -27 -34 -8 -41 -34 -10 -34 14 0 25 4 25 9 0 10 99 20 103 10 1 -3 14 -9 30 -13 20 -5 27 -3 27 9 0 8 -9 15 -19 15 -27 0 -37 21 -18 35 24 17 21 25 -7 23 -14 -1 -24 -7 -23 -13z"/>
    <path d="M1686 3002 c-3 -3 -6 -14 -6 -25 0 -18 2 -18 23 -4 21 13 23 13 24 -3 1 -10 -5 -21 -13 -24 -10 -4 -13 -13 -8 -30 3 -13 1 -35 -6 -48 l-11 -23 19 24 c27 34 43 90 32 111 -10 18 -45 32 -54 22z"/>
    <path d="M1376 2832 c-5 -9 -1 -18 10 -27 22 -17 43 -18 64 -5 9 6 20 5 30 -3 13 -10 13 -10 2 4 -9 13 -23 16 -51 12 -33 -5 -40 -2 -43 13 -3 15 -5 16 -12 6z"/>
    <path d="M1615 2821 c-3 -6 -24 -11 -46 -11 -51 0 -51 -14 0 -17 36 -2 73 19 58 33 -3 3 -8 1 -12 -5z"/>
    <path d="M1652 2759 c-13 -20 -11 -25 20 -54 18 -17 58 -42 88 -56 30 -13 62 -31 71 -39 9 -8 44 -31 78 -50 89 -49 138 -94 171 -159 25 -48 29 -52 30 -28 0 15 -5 27 -10 27 -6 0 -10 6 -9 13 3 19 -16 59 -43 88 -39 41 -205 149 -300 194 -32 15 -55 31 -52 36 3 5 0 8 -7 7 -7 -2 -15 7 -18 20 l-6 22 -13 -21z"/>
    <path d="M1316 2745 c-4 -14 -10 -23 -15 -21 -5 3 -16 -3 -26 -14 -9 -10 -31 -22 -49 -26 -17 -3 -47 -13 -66 -22 -19 -8 -37 -16 -40 -17 -31 -8 -50 -18 -50 -25 0 -9 -86 -70 -99 -70 -17 0 -60 -42 -76 -73 -23 -44 -53 -164 -45 -177 4 -7 10 6 13 27 4 21 21 66 38 101 30 58 37 65 110 104 44 23 80 49 82 60 3 10 12 18 21 18 9 0 34 9 56 20 21 11 45 17 53 14 8 -2 20 2 27 11 7 8 18 15 24 15 19 0 66 50 66 70 0 29 -17 33 -24 5z"/>
    <path d="M1348 2710 c-3 -14 -8 -32 -12 -40 -3 -8 4 -26 15 -40 16 -19 19 -20 15 -6 -4 10 -2 24 4 31 8 9 7 23 -3 47 -13 32 -14 33 -19 8z"/>
    <path d="M1614 2692 c-6 -23 -7 -39 -3 -36 5 3 9 -2 9 -10 0 -17 15 -22 24 -7 3 4 0 27 -7 51 l-12 43 -11 -41z"/>
    <path d="M1661 2649 c-7 -12 -19 -40 -27 -62 -13 -36 -12 -38 2 -26 22 18 42 61 36 78 -3 8 0 11 7 7 7 -5 9 -1 5 8 -8 20 -7 20 -23 -5z"/>
    <path d="M1307 2629 c-3 -19 -1 -38 5 -44 6 -6 7 -3 3 10 -3 11 2 7 12 -10 17 -29 18 -29 21 -7 2 12 -5 37 -16 53 l-19 31 -6 -33z"/>
    <path d="M1697 2577 c-29 -105 -30 -114 -14 -114 8 0 14 11 14 26 0 14 5 52 12 84 17 79 10 81 -12 4z"/>
    <path d="M1248 2617 c-7 -17 16 -69 27 -60 4 5 5 0 2 -9 -4 -10 -2 -18 4 -18 6 0 8 -7 5 -16 -4 -9 -2 -13 5 -8 8 4 9 -1 4 -17 -4 -16 -3 -20 3 -11 7 11 11 10 16 -4 3 -9 9 -15 12 -12 2 3 -13 42 -35 86 -21 45 -41 76 -43 69z"/>
    <path d="M1217 2590 c-3 -12 -3 -19 1 -15 4 4 12 -13 19 -37 l13 -43 -6 44 c-6 58 -19 82 -27 51z"/>
    <path d="M1746 2602 c-3 -6 -8 -39 -11 -74 l-5 -63 14 70 c13 69 14 86 2 67z"/>
    <path d="M1786 2593 c-8 -28 -11 -91 -5 -98 4 -3 9 20 12 52 6 58 3 79 -7 46z"/>
    <path d="M1815 2549 c-4 -26 -5 -55 -2 -65 3 -11 6 1 8 26 2 39 3 36 9 -25 l6 -70 2 70 c1 91 -13 130 -23 64z"/>
    <path d="M1140 2537 c0 -21 -4 -36 -9 -32 -5 3 -12 -4 -16 -15 -4 -11 -11 -17 -17 -14 -8 5 -9 -1 -5 -17 4 -13 7 -35 7 -49 l1 -25 11 25 c5 14 12 36 14 50 8 37 14 37 15 -1 1 -24 4 -17 10 25 5 35 5 65 -1 75 -7 12 -9 7 -10 -22z"/>
    <path d="M1086 2543 c-3 -10 -9 -24 -12 -30 -3 -8 1 -13 10 -13 11 0 16 9 16 30 0 34 -5 38 -14 13z"/>
    <path d="M1867 2523 c-4 -3 -6 -34 -5 -67 l1 -61 7 65 c7 70 7 73 -3 63z"/>
    <path d="M1190 2499 c0 -11 5 -17 10 -14 6 3 10 2 10 -3 0 -6 7 -12 15 -16 13 -4 14 -2 5 14 -6 11 -15 20 -21 20 -6 0 -7 5 -4 10 3 6 1 10 -4 10 -6 0 -11 -9 -11 -21z"/>
    <path d="M1021 2458 c21 -67 27 -83 28 -70 2 23 -21 102 -29 102 -5 0 -4 -15 1 -32z"/>
    <path d="M1899 2463 c0 -10 -2 -31 -4 -47 -6 -43 13 -18 20 27 4 23 2 37 -4 37 -6 0 -11 -8 -12 -17z"/>
    <path d="M1968 2450 c-4 -14 -8 -41 -7 -60 0 -33 1 -34 10 -10 6 13 9 40 7 60 -3 32 -4 33 -10 10z"/>
    <path d="M1998 2420 c-19 -139 -19 -138 -3 -80 9 30 15 73 13 95 -3 39 -3 38 -10 -15z"/>
    <path d="M1008 2394 c14 -29 28 -52 30 -49 8 8 -28 93 -42 98 -8 3 -3 -15 12 -49z"/>
    <path d="M2031 2425 c-1 -11 -4 -38 -8 -59 l-6 -40 28 26 c22 21 25 29 16 44 -10 18 -10 18 -12 -1 -1 -11 -5 -4 -9 15 -4 19 -8 26 -9 15z"/>
    <path d="M940 2404 c-9 -23 -8 -40 7 -83 10 -30 20 -46 21 -37 2 10 -3 35 -12 57 -14 34 -14 39 -1 39 8 0 15 -4 15 -10 0 -5 7 -10 15 -10 8 0 15 5 15 10 0 6 -5 9 -12 8 -6 -2 -14 6 -16 17 -7 36 -21 39 -32 9z"/>
    <path d="M900 2351 c0 -34 24 -80 36 -69 4 5 -26 108 -32 108 -2 0 -4 -18 -4 -39z"/>
    <path d="M2072 2278 c0 -68 1 -70 9 -28 10 62 11 100 0 100 -5 0 -9 -33 -9 -72z"/>
    <path d="M2109 2283 c0 -32 -4 -80 -8 -107 -7 -43 -7 -47 5 -31 13 18 21 195 9 195 -3 0 -5 -26 -6 -57z"/>
    <path d="M761 1435 l-1 -40 112 4 113 5 -97 6 c-99 5 -112 10 -121 45 -3 11 -5 2 -6 -20z"/>
    <path d="M1784 1416 c-3 -9 -12 -16 -20 -16 -8 0 -24 -17 -38 -37 -33 -53 -53 -68 -118 -93 -32 -12 -57 -27 -55 -33 1 -7 -3 -11 -9 -10 -7 1 -17 -11 -24 -27 -7 -17 -17 -30 -22 -30 -5 0 -6 -6 -3 -12 4 -7 -17 13 -47 45 -30 33 -72 67 -97 78 -25 11 -60 38 -80 61 -30 35 -82 68 -109 68 -12 0 -42 -55 -42 -79 0 -11 26 -48 58 -82 31 -34 61 -68 65 -76 5 -8 25 -29 45 -47 31 -29 38 -32 50 -19 12 12 12 17 -3 33 -10 11 -27 22 -38 26 -40 13 -65 57 -46 80 8 10 8 14 0 14 -6 0 -11 -5 -11 -10 0 -7 -6 -7 -20 0 -15 8 -20 8 -20 -1 0 -7 -2 -10 -5 -7 -3 3 -1 17 4 31 9 22 7 26 -14 31 -26 7 -50 40 -40 56 3 6 19 10 35 10 21 0 35 -9 51 -32 40 -59 72 -88 103 -94 42 -8 79 -40 104 -90 29 -57 45 -69 64 -46 9 9 23 32 33 51 23 46 63 78 105 85 36 6 88 52 123 108 9 15 27 33 39 39 18 10 24 8 35 -7 17 -23 17 -34 -1 -34 -20 0 -79 -77 -70 -91 4 -7 0 -9 -14 -5 -13 5 -22 1 -26 -10 -5 -12 -2 -15 10 -10 9 4 3 -8 -14 -26 -18 -17 -34 -40 -38 -50 -3 -10 -9 -18 -14 -18 -10 0 -3 28 13 48 6 8 5 12 -4 12 -13 0 -30 -29 -43 -75 -8 -28 -97 -122 -121 -129 -71 -19 -152 -12 -98 8 11 4 13 10 7 14 -5 4 -20 22 -33 40 -23 33 -44 41 -57 20 -4 -6 -3 -8 3 -5 11 7 49 -52 45 -71 -7 -29 29 -52 80 -52 26 0 48 4 48 10 0 5 11 12 25 16 25 6 95 76 95 94 0 6 20 30 45 54 25 25 45 50 45 55 0 6 6 11 13 11 14 0 47 35 47 50 0 5 6 13 13 17 7 4 24 24 37 43 13 19 27 37 30 40 18 17 7 66 -18 73 -9 3 -25 8 -34 12 -12 5 -20 2 -24 -9z"/>
    <path d="M2293 1404 c0 -10 12 -14 39 -14 21 0 38 4 38 8 0 5 -10 8 -22 7 -13 -1 -30 1 -39 6 -11 5 -16 3 -16 -7z"/>
    <path d="M2180 1400 c-11 -7 3 -9 45 -9 45 1 54 3 35 9 -35 11 -63 11 -80 0z"/>
    <path d="M575 1389 c-24 -5 -16 -7 35 -10 36 -1 81 -3 100 -4 33 -2 210 -69 298 -114 25 -13 43 -17 47 -11 6 9 -8 14 -27 11 -5 0 -8 3 -8 9 0 6 -3 9 -8 8 -10 -4 -203 84 -198 90 3 2 40 -9 83 -26 43 -16 94 -33 113 -37 19 -4 49 -17 65 -28 l30 -21 -23 25 c-12 14 -48 34 -80 44 -54 18 -56 19 -27 25 l30 6 -30 8 c-16 5 -68 10 -115 11 -47 2 -96 7 -111 13 -28 11 -129 12 -174 1z"/>
    <path d="M2500 1379 c12 -9 11 -10 -8 -6 -24 6 -82 -12 -82 -26 0 -4 -5 -5 -10 -2 -6 4 -8 11 -5 16 4 5 1 9 -5 9 -19 0 -215 -79 -236 -95 -18 -14 -17 -15 11 -9 17 4 40 13 52 20 12 8 27 14 33 14 6 0 31 9 55 20 35 16 49 18 68 9 19 -9 35 -6 87 16 61 26 65 26 92 10 15 -9 28 -14 28 -10 0 9 -64 45 -80 45 -13 0 -13 -1 0 -11z"/>
    <path d="M595 1341 c37 -17 101 -35 165 -45 58 -9 132 -24 164 -32 32 -8 61 -12 63 -10 9 9 -155 56 -172 50 -14 -6 -16 -4 -10 6 6 10 4 12 -7 7 -9 -3 -57 8 -107 24 -50 16 -106 29 -124 29 -30 0 -28 -2 28 -29z"/>
    <path d="M2180 1350 c0 -6 16 -8 43 -4 58 9 59 14 4 14 -26 0 -47 -5 -47 -10z"/>
    <path d="M506 1322 c-3 -5 7 -15 21 -21 20 -9 24 -14 13 -21 -8 -5 13 -10 56 -14 97 -9 157 -21 244 -45 120 -34 193 -52 197 -48 5 5 -123 54 -192 73 -33 9 -116 28 -185 43 -69 15 -131 30 -137 34 -6 4 -14 3 -17 -1z"/>
    <path d="M2330 1304 c-14 -7 -33 -14 -42 -14 -10 0 -18 -4 -18 -9 0 -5 27 -2 60 6 33 9 57 19 54 24 -7 12 -24 10 -54 -7z"/>
    <path d="M2591 1267 c5 -23 12 -49 16 -57 10 -23 11 -70 2 -70 -4 0 -10 -14 -14 -31 -8 -33 -48 -81 -78 -92 -11 -4 -21 -16 -24 -27 -3 -11 -9 -20 -13 -20 -8 0 -50 -96 -50 -115 0 -29 45 -53 112 -58 40 -3 73 -11 82 -20 21 -21 14 -24 -51 -17 -82 7 -832 4 -868 -4 -16 -4 -37 -9 -45 -12 -24 -9 -218 -5 -278 5 -165 29 -242 35 -242 22 0 -9 -5 -9 -21 -1 -11 7 -27 9 -36 6 -43 -17 -616 -27 -621 -11 -2 6 24 16 57 24 37 9 61 20 61 28 0 7 -8 13 -18 13 -19 0 -110 -28 -127 -39 -5 -4 -23 -7 -40 -7 -25 1 -35 -7 -62 -49 -18 -27 -33 -54 -33 -60 0 -5 10 5 21 23 20 30 35 38 69 33 41 -5 369 0 556 8 116 5 228 8 250 5 21 -2 62 -6 89 -8 28 -3 68 -8 90 -13 45 -9 246 -10 285 -2 14 3 33 9 42 13 23 10 78 11 562 7 226 -2 420 -7 433 -12 15 -5 23 -5 23 2 0 6 4 8 9 5 5 -3 12 1 15 10 3 8 2 13 -3 10 -4 -3 -18 4 -29 15 -12 11 -22 17 -22 13 0 -4 -9 1 -20 11 -11 10 -23 16 -26 12 -3 -3 -21 1 -40 9 -18 8 -37 14 -41 13 -5 -1 -32 -1 -61 0 -50 1 -53 2 -47 24 17 59 61 129 90 144 45 23 65 44 65 67 1 12 9 36 19 55 16 30 17 40 6 80 -17 62 -32 98 -43 105 -6 4 -6 -10 -1 -37z"/>
    <path d="M2295 1260 c-60 -15 -101 -28 -89 -29 21 -1 225 47 233 55 10 10 -41 1 -144 -26z"/>
    <path d="M2365 1248 c-38 -10 -92 -22 -120 -27 -44 -8 -45 -9 -15 -10 72 -2 250 34 250 50 0 13 -35 9 -115 -13z"/>
    <path d="M2081 1241 c-28 -15 -31 -19 -16 -25 10 -3 20 -4 23 -1 3 3 -1 5 -9 5 -11 0 -11 2 1 10 22 14 33 12 27 -4 -4 -10 -1 -13 9 -9 10 4 12 9 4 18 -5 6 -7 15 -3 18 10 11 1 8 -36 -12z"/>
    <path d="M406 1225 c-26 -21 -28 -26 -18 -52 6 -15 13 -46 15 -68 9 -74 33 -113 86 -140 37 -18 52 -33 60 -58 12 -34 61 -90 61 -70 0 41 -72 153 -98 153 -5 0 -15 7 -22 15 -7 8 -15 13 -19 10 -7 -3 -20 32 -52 138 -9 33 -8 41 6 57 27 30 13 41 -19 15z"/>
    <path d="M525 1240 c3 -5 27 -9 53 -9 42 1 44 2 17 9 -45 11 -77 11 -70 0z"/>
    <path d="M941 1237 c9 -11 139 -57 159 -57 41 0 18 16 -48 32 -37 10 -78 21 -92 24 -14 4 -23 4 -19 1z"/>
    <path d="M2330 1204 c-41 -7 -93 -13 -115 -14 -22 0 -46 -4 -53 -9 -26 -16 238 12 266 29 15 8 15 9 -3 8 -11 0 -54 -6 -95 -14z"/>
    <path d="M1570 1166 c0 -22 -45 -88 -54 -79 -3 4 -5 -4 -4 -17 3 -21 -1 -25 -25 -25 -18 -1 -32 6 -38 17 -8 14 -6 16 8 12 13 -4 14 -3 5 3 -22 16 -62 76 -56 84 3 5 -9 9 -25 9 -17 0 -31 -2 -31 -5 0 -3 23 -40 52 -81 51 -74 53 -76 86 -70 36 5 41 10 103 99 27 38 35 57 25 57 -8 0 -21 3 -30 6 -11 4 -16 1 -16 -10z"/>
    <path d="M1960 1160 l-45 -7 45 -1 c25 -1 52 3 60 8 18 11 13 11 -60 0z"/>
    <path d="M1965 1120 c68 -22 93 -24 115 -9 12 8 12 10 -5 8 -38 -3 -66 1 -62 9 3 4 -20 8 -51 9 l-57 3 60 -20z"/>
    <path d="M81 1094 c-12 -13 -21 -28 -19 -35 2 -7 14 1 27 20 28 39 25 45 -8 15z"/>
    <path d="M1103 1091 c-61 -38 -66 -48 -8 -16 59 34 59 34 54 39 -2 2 -23 -8 -46 -23z"/>
    <path d="M2905 1087 c1 -13 4 -28 8 -34 9 -14 47 -24 47 -12 0 5 -6 9 -14 9 -8 0 -19 14 -25 30 -12 36 -17 38 -16 7z"/>
    <path d="M1985 1075 c17 -8 46 -14 65 -14 l35 1 -40 9 c-85 19 -93 20 -60 4z"/>
    <path d="M264 1056 c-6 -6 -26 -23 -44 -38 -19 -16 -29 -28 -23 -28 6 0 16 7 23 15 6 8 15 13 18 12 4 -1 8 2 9 6 1 5 10 15 20 22 10 7 16 16 13 18 -3 3 -10 0 -16 -7z"/>
    <path d="M1820 1035 c0 -9 10 -15 25 -15 14 0 25 -4 25 -9 0 -16 122 -52 195 -58 39 -3 68 -3 64 0 -3 4 -36 9 -73 12 -38 4 -76 10 -85 15 -14 8 -52 25 -133 62 -13 5 -18 3 -18 -7z"/>
    <path d="M28 1021 c-8 -12 -17 -19 -19 -17 -2 2 -5 -7 -5 -21 -2 -23 0 -22 23 12 14 20 23 39 20 41 -3 3 -11 -4 -19 -15z"/>
    <path d="M2949 993 c34 -45 51 -60 51 -46 0 5 -19 27 -42 48 l-42 40 33 -42z"/>
    <path d="M355 980 c-26 -27 -30 -29 -36 -13 -5 14 -7 12 -11 -10 -8 -39 13 -34 51 13 38 48 36 52 -4 10z"/>
    <path d="M1820 992 c0 -20 249 -93 313 -91 23 1 31 3 17 5 -95 14 -266 61 -311 84 -10 6 -19 7 -19 2z"/>
    <path d="M2729 985 c17 -33 40 -59 47 -53 3 3 -9 21 -26 40 -17 18 -27 24 -21 13z"/>
    <path d="M404 944 c-18 -15 -18 -15 5 -8 15 4 26 1 31 -7 5 -7 16 -14 25 -15 11 -2 8 5 -10 22 -31 28 -27 28 -51 8z"/>
    <path d="M2849 856 c26 -34 56 -63 66 -65 12 -2 6 10 -21 36 -48 49 -70 76 -67 84 1 3 -4 6 -12 6 -7 0 8 -27 34 -61z"/>
    <path d="M2916 903 c-3 -8 -2 -12 3 -8 13 8 41 -5 41 -20 0 -6 10 -23 22 -36 21 -24 21 -16 -3 32 -16 33 -55 53 -63 32z"/>
    <path d="M2690 883 c0 -4 9 -14 20 -21 12 -7 18 -18 14 -25 -4 -7 -3 -9 1 -4 5 4 17 -1 27 -10 14 -12 17 -13 13 -2 -8 18 -75 74 -75 62z"/>
    <path d="M1087 699 c-17 -58 -23 -100 -17 -104 8 -5 31 106 24 114 -2 2 -5 -2 -7 -10z"/>
    <path d="M2343 658 c11 -28 23 -46 25 -40 3 10 -34 92 -43 92 -2 0 6 -23 18 -52z"/>
    <path d="M2740 680 c44 -64 183 -250 188 -250 2 0 -2 8 -9 19 -33 44 -102 140 -135 186 -42 59 -78 96 -44 45z"/>
    <path d="M2280 680 c6 -11 8 -25 5 -30 -3 -5 -1 -18 4 -27 8 -14 10 -15 11 -3 0 13 1 13 10 0 14 -22 13 -25 -15 -28 -17 -1 -29 6 -40 26 -9 15 -14 19 -11 9 3 -10 6 -26 6 -34 0 -11 8 -14 30 -11 27 4 30 2 25 -16 -4 -15 -1 -13 10 6 15 26 14 31 -10 78 -14 27 -28 50 -31 50 -2 0 0 -9 6 -20z"/>
    <path d="M2446 675 c23 -39 44 -60 44 -45 0 6 6 8 13 4 7 -4 9 -3 4 2 -5 5 -13 9 -18 9 -5 0 -21 14 -35 30 l-26 30 18 -30z"/>
    <path d="M2548 670 c58 -103 152 -242 152 -224 0 6 -13 25 -30 44 -16 19 -29 40 -30 47 0 19 -34 77 -53 91 -10 8 -16 20 -13 28 3 8 1 13 -4 11 -5 -1 -16 7 -25 18 -12 14 -11 10 3 -15z"/>
    <path d="M890 685 c0 -6 4 -16 9 -24 5 -7 4 -31 -1 -53 -5 -22 -7 -43 -4 -45 2 -2 9 17 14 43 8 38 7 52 -4 68 -8 11 -14 16 -14 11z"/>
    <path d="M1205 625 c-10 -36 -15 -68 -12 -72 4 -3 7 2 7 13 1 10 9 43 19 72 10 28 15 52 11 52 -4 0 -16 -29 -25 -65z"/>
    <path d="M1128 646 c-2 -21 -1 -39 3 -41 10 -7 18 48 9 64 -5 9 -9 1 -12 -23z"/>
    <path d="M456 655 c-3 -8 -2 -22 1 -32 5 -12 3 -14 -8 -8 -8 5 -11 4 -6 0 4 -5 14 -10 22 -11 11 -2 12 2 5 16 -12 23 -13 33 -1 26 5 -3 11 1 15 9 3 9 0 15 -8 15 -8 0 -16 -7 -20 -15z"/>
    <path d="M515 614 c-11 -31 -36 -82 -57 -113 -33 -48 -34 -51 -8 -21 32 35 94 150 82 150 -3 0 -1 5 6 12 14 14 16 28 4 28 -4 0 -16 -25 -27 -56z"/>
    <path d="M2850 585 c28 -41 53 -75 56 -75 2 0 -18 34 -46 75 -28 41 -53 75 -56 75 -2 0 18 -34 46 -75z"/>
    <path d="M257 601 c-29 -33 -29 -45 -1 -21 16 14 33 27 37 31 4 3 1 6 -8 6 -8 0 -21 -7 -28 -16z"/>
    <path d="M721 564 c-12 -26 -19 -49 -16 -52 3 -3 5 0 5 7 0 7 5 9 12 5 7 -4 8 -3 4 4 -4 6 0 25 9 43 9 17 15 33 13 35 -2 2 -14 -17 -27 -42z"/>
    <path d="M425 536 c-16 -24 -37 -86 -30 -86 6 0 49 84 46 89 -2 2 3 8 11 12 9 6 10 9 1 9 -7 0 -20 -11 -28 -24z"/>
    <path d="M875 516 c-4 -20 -11 -36 -16 -36 -5 0 -9 -4 -9 -10 0 -5 4 -10 10 -10 10 0 34 79 26 87 -2 3 -8 -11 -11 -31z"/>
    <path d="M2110 542 c0 -4 7 -18 16 -30 8 -12 13 -26 10 -31 -8 -12 14 -71 25 -71 5 0 9 9 9 21 0 11 -4 18 -9 15 -5 -3 -12 1 -15 10 -8 22 -8 24 9 24 11 0 9 8 -8 35 -21 32 -37 44 -37 27z"/>
    <path d="M1063 430 c0 -41 2 -58 4 -37 2 20 2 54 0 75 -2 20 -4 3 -4 -38z"/>
    <path d="M610 439 c0 -11 -5 -29 -11 -41 -6 -11 -8 -22 -5 -25 5 -6 15 16 30 65 5 13 3 22 -3 22 -6 0 -11 -9 -11 -21z"/>
    <path d="M850 450 c-3 -11 -8 -37 -14 -75 -5 -36 -4 -35 9 10 8 28 13 55 11 60 -3 6 -5 8 -6 5z"/>
    <path d="M2669 404 c-8 -10 -9 -15 -3 -11 7 4 29 -16 55 -49 24 -31 45 -51 47 -45 2 6 12 1 23 -11 10 -13 2 9 -18 49 -21 39 -39 70 -41 68 -2 -2 6 -22 18 -45 20 -40 19 -74 -1 -38 -5 9 -16 23 -24 31 -8 8 -12 16 -10 18 2 3 -4 15 -14 27 -16 22 -18 23 -32 6z"/>
    <path d="M2828 330 c14 -27 28 -48 30 -46 5 6 -41 96 -49 96 -5 0 4 -22 19 -50z"/>
    <path d="M1344 171 l-2 -176 8 155 c4 85 10 162 14 171 4 10 2 18 -6 21 -10 4 -13 -30 -14 -171z"/>
    <path d="M2180 344 c0 -14 52 -155 56 -151 2 2 -7 37 -21 77 -24 70 -35 94 -35 74z"/>
    <path d="M2498 244 c38 -88 61 -135 62 -123 0 10 -81 194 -91 204 -5 5 8 -31 29 -81z"/>
    <path d="M251 264 c-18 -25 -30 -48 -28 -50 2 -3 12 7 21 21 9 14 23 36 32 50 28 43 9 27 -25 -21z"/>
    <path d="M2246 160 c10 -38 32 -87 32 -70 0 8 -8 33 -19 55 -10 22 -16 29 -13 15z"/>
    <path d="M770 129 c-6 -24 -13 -51 -16 -59 -3 -10 -2 -12 5 -5 11 11 32 97 26 103 -2 2 -9 -16 -15 -39z"/>
  </g>
  <text style="white-space: pre; fill: rgb(51, 51, 51); font-family: Arial, sans-serif; font-size: 28px;" x="399.805" y="395.364"> </text>
</svg>